#!OML:ASF X:\für Bonn\!DataBase\2005_08_12_Daniel\c3d\Daniel.ASF
:FULLY-SPECIFIED
:DEGREES
92
root -24.3892 16.245 -22.8973 -0.346891 45.6477 -719.772
lowerback 40.4888 2.43612 -0.202769
upperback 10.7044 3.14654 -4.88563
thorax -7.34979 1.93902 -6.41236
lowerneck -3.94454 -1.85969 -6.01694
upperneck -6.59101 -2.19416 1.5107
head -1.30774 -0.94618 1.48582
rclavicle -6.71892e-014 1.27222e-014
rhumerus -20.8637 11.6792 -92.5343
rradius 59.4342
rwrist 0.642057
rhand -26.1863 22.9111
rfingers 7.12502
rthumb 0.365831 -7.06832
lclavicle -6.71892e-014 1.27222e-014
lhumerus -22.8719 41.7678 71.542
lradius 21.4188
lwrist -35.8724
lhand -14.2277 -6.80881
lfingers 7.12502
lthumb 11.9095 22.8325
rfemur 7.26808 10.6743 22.7807
rtibia 48.5131
rfoot -14.8702 10.4663
rtoes 0.551928
lfemur -46.496 -4.04891 -18.7545
ltibia 60.2746
lfoot -12.9173 -7.92339
ltoes -9.16887
93
root -24.2892 16.2587 -22.8231 -0.217212 45.6232 -719.837
lowerback 40.3702 2.53939 -0.386966
upperback 10.6851 3.20071 -4.87723
thorax -7.33454 1.9607 -6.32413
lowerneck -4.07003 -1.85877 -5.91796
upperneck -6.43826 -2.18794 1.49985
head -1.23883 -0.94819 1.46164
rclavicle -1.51076e-014 -7.95139e-015
rhumerus -20.9148 11.7469 -92.5857
rradius 59.2994
rwrist 0.512909
rhand -26.0848 23.053
rfingers 7.12502
rthumb 0.463817 -6.92621
lclavicle -1.51076e-014 -7.95139e-015
lhumerus -22.7403 41.4709 71.6993
lradius 21.6011
lwrist -35.5236
lhand -14.3356 -6.78305
lfingers 7.12502
lthumb 11.8055 22.8642
rfemur 7.5348 10.6995 22.8499
rtibia 48.1908
rfoot -13.9857 10.1552
rtoes 0.401949
lfemur -46.3847 -4.09626 -18.7995
ltibia 60.6428
lfoot -13.4403 -7.8515
ltoes -8.8506
94
root -24.192 16.2723 -22.7525 -0.104412 45.6054 -719.926
lowerback 40.2659 2.62644 -0.570491
upperback 10.6716 3.23844 -4.84254
thorax -7.31958 1.974 -6.20158
lowerneck -4.22658 -1.83947 -5.90437
upperneck -6.28665 -2.15141 1.51132
head -1.16565 -0.932941 1.4595
rclavicle -7.95139e-016 -4.96962e-014
rhumerus -20.9262 11.8573 -92.5953
rradius 59.1079
rwrist 0.360359
rhand -25.9937 23.2784
rfingers 7.12502
rthumb 0.551816 -6.70062
lclavicle -7.95139e-016 -4.96962e-014
lhumerus -22.5748 41.2637 71.9114
lradius 21.778
lwrist -35.1605
lhand -14.471 -6.76409
lfingers 7.12502
lthumb 11.675 22.8906
rfemur 7.70375 10.6953 22.9123
rtibia 47.9734
rfoot -13.0169 9.83798
rtoes 0.29109
lfemur -46.2823 -4.14776 -18.8308
ltibia 60.9902
lfoot -13.94 -7.75259
ltoes -8.60057
95
root -24.0975 16.2851 -22.6813 0.0228825 45.5693 -719.968
lowerback 40.1932 2.73166 -0.795906
upperback 10.6464 3.27957 -4.82141
thorax -7.32802 1.98851 -6.07515
lowerneck -4.40637 -1.83882 -5.87069
upperneck -6.11218 -2.13957 1.51138
head -1.08081 -0.930719 1.44963
rclavicle 2.82274e-014 -4.37326e-014
rhumerus -20.9747 11.9298 -92.6203
rradius 58.9415
rwrist 0.252173
rhand -25.8818 23.4911
rfingers 7.12502
rthumb 0.65992 -6.48767
lclavicle 2.82274e-014 -4.37326e-014
lhumerus -22.3721 41.0219 72.1248
lradius 21.9039
lwrist -34.7563
lhand -14.6684 -6.65965
lfingers 7.12502
lthumb 11.4845 23.0058
rfemur 7.83593 10.6791 22.9257
rtibia 47.8589
rfoot -11.9772 9.54603
rtoes 0.227691
lfemur -46.1397 -4.18948 -18.8857
ltibia 61.3066
lfoot -14.4541 -7.65762
ltoes -8.43389
96
root -24.0059 16.2972 -22.6107 0.132457 45.5448 -720.034
lowerback 40.0816 2.82103 -1.01353
upperback 10.6331 3.30772 -4.79031
thorax -7.3124 1.99725 -5.93469
lowerneck -4.50079 -1.81901 -5.89146
upperneck -5.97728 -2.10511 1.5467
head -1.02319 -0.915917 1.46242
rclavicle -6.36111e-014 3.97569e-014
rhumerus -21.0303 12.0129 -92.6575
rradius 58.7414
rwrist 0.172124
rhand -25.835 23.8
rfingers 7.12502
rthumb 0.705119 -6.17856
lclavicle -6.36111e-014 3.97569e-014
lhumerus -22.1841 40.8011 72.3408
lradius 22.0508
lwrist -34.3526
lhand -14.8176 -6.61539
lfingers 7.12502
lthumb 11.3407 23.058
rfemur 7.89698 10.6312 22.9426
rtibia 47.8383
rfoot -10.8995 9.27387
rtoes -0.115819
lfemur -46.0066 -4.21539 -18.9198
ltibia 61.609
lfoot -14.9392 -7.58338
ltoes -8.22024
97
root -23.9158 16.3073 -22.5418 0.202655 45.5032 -720.101
lowerback 40.0072 2.91554 -1.22003
upperback 10.6211 3.34598 -4.7614
thorax -7.3057 2.01117 -5.80798
lowerneck -4.5256 -1.8097 -5.92537
upperneck -5.92352 -2.08838 1.59676
head -1.002 -0.908434 1.48382
rclavicle 5.80451e-014 -2.0276e-014
rhumerus -21.1144 12.0308 -92.7001
rradius 58.5567
rwrist 0.162347
rhand -25.7841 24.0824
rfingers 7.12502
rthumb 0.754261 -5.89606
lclavicle 5.80451e-014 -2.0276e-014
lhumerus -21.9592 40.4236 72.6067
lradius 22.2003
lwrist -33.8739
lhand -15.0143 -6.55655
lfingers 7.12502
lthumb 11.151 23.1272
rfemur 7.93725 10.5518 22.924
rtibia 47.9101
rfoot -9.80786 9.08727
rtoes -0.553203
lfemur -45.8257 -4.21031 -18.9513
ltibia 61.8949
lfoot -15.4261 -7.54592
ltoes -7.95018
98
root -23.8263 16.318 -22.4738 0.30955 45.4678 -720.144
lowerback 39.9003 2.997 -1.42892
upperback 10.6174 3.36891 -4.7391
thorax -7.28073 2.01849 -5.67935
lowerneck -4.58598 -1.79602 -5.97029
upperneck -5.83431 -2.06298 1.64819
head -0.963936 -0.89693 1.50695
rclavicle -2.26615e-014 6.44062e-014
rhumerus -21.1606 12.038 -92.7544
rradius 58.3368
rwrist 0.158333
rhand -25.753 24.3069
rfingers 7.12502
rthumb 0.784334 -5.6714
lclavicle -2.26615e-014 6.44062e-014
lhumerus -21.719 40.0785 72.8858
lradius 22.3479
lwrist -33.3706
lhand -15.2316 -6.46834
lfingers 7.12502
lthumb 10.9414 23.2266
rfemur 7.88775 10.4497 22.8625
rtibia 48.0724
rfoot -8.69077 8.93665
rtoes -1.05684
lfemur -45.6679 -4.20865 -19.0108
ltibia 62.1683
lfoot -15.9218 -7.50319
ltoes -8.01026
99
root -23.7375 16.3278 -22.4078 0.379764 45.4439 -720.211
lowerback 39.8114 3.06318 -1.59958
upperback 10.614 3.38792 -4.71665
thorax -7.26028 2.02433 -5.56978
lowerneck -4.63838 -1.77874 -5.93008
upperneck -5.7573 -2.03863 1.63464
head -0.932244 -0.886885 1.49445
rclavicle 1.98785e-014 -1.98785e-014
rhumerus -21.1637 11.9593 -92.8141
rradius 58.0492
rwrist 0.25088
rhand -25.6914 24.5507
rfingers 7.12502
rthumb 0.843837 -5.42738
lclavicle 1.98785e-014 -1.98785e-014
lhumerus -21.4758 39.6985 73.1685
lradius 22.5069
lwrist -32.9396
lhand -15.3915 -6.39582
lfingers 7.12502
lthumb 10.7872 23.3072
rfemur 7.78922 10.3148 22.7947
rtibia 48.3283
rfoot -7.53879 8.72841
rtoes -1.74114
lfemur -45.4907 -4.24472 -19.0433
ltibia 62.4316
lfoot -16.3993 -7.42909
ltoes -7.82607
